<svg width="255" height="234" viewBox="0 0 255 234" fill="none" xmlns="http://www.w3.org/2000/svg">
<rect width="255" height="234" rx="8" fill="#0349EB"/>
<mask id="mask0_79_488" style="mask-type:alpha" maskUnits="userSpaceOnUse" x="0" y="0" width="255" height="234">
<rect width="255" height="234" rx="8" fill="#000C22"/>
</mask>
<g mask="url(#mask0_79_488)">
<path d="M255 234H0L255 8V234Z" fill="#F56A31"/>
<path d="M217.5 127L224.168 162.4L241.449 130.793L236.851 166.521L263.053 141.801L247.64 174.36L280.199 158.947L255.479 185.149L291.207 180.551L259.6 197.832L295 204.5L259.6 211.168L291.207 228.449L255.479 223.851L280.199 250.053L247.64 234.64L263.053 267.199L236.851 242.479L241.449 278.207L224.168 246.6L217.5 282L210.832 246.6L193.551 278.207L198.149 242.479L171.947 267.199L187.36 234.64L154.801 250.053L179.521 223.851L143.793 228.449L175.4 211.168L140 204.5L175.4 197.832L143.793 180.551L179.521 185.149L154.801 158.947L187.36 174.36L171.947 141.801L198.149 166.521L193.551 130.793L210.832 162.4L217.5 127Z" fill="#F4F139"/>
<path d="M38 -34L44.3669 -0.198917L60.8673 -30.3782L56.4774 3.73603L81.4961 -19.8673L66.7793 11.2208L97.8672 -3.49611L74.264 21.5226L108.378 17.1327L78.1989 33.6331L112 40L78.1989 46.3669L108.378 62.8673L74.264 58.4774L97.8672 83.4961L66.7793 68.7793L81.4961 99.8672L56.4774 76.264L60.8673 110.378L44.3669 80.1989L38 114L31.6331 80.1989L15.1327 110.378L19.5226 76.264L-5.49611 99.8672L9.22075 68.7793L-21.8673 83.4961L1.73603 58.4774L-32.3782 62.8673L-2.19892 46.3669L-36 40L-2.19892 33.6331L-32.3782 17.1327L1.73603 21.5226L-21.8673 -3.49611L9.22075 11.2208L-5.49611 -19.8673L19.5226 3.73603L15.1327 -30.3782L31.6331 -0.198917L38 -34Z" fill="#F4F139"/>
</g>
<path d="M204.858 208.546V212H192.868V209.272L198.632 203.882C199.189 203.354 199.563 202.907 199.754 202.54C199.945 202.159 200.04 201.777 200.04 201.396C200.04 200.897 199.871 200.509 199.534 200.23C199.197 199.951 198.705 199.812 198.06 199.812C197.488 199.812 196.96 199.944 196.476 200.208C196.007 200.457 195.618 200.824 195.31 201.308L192.076 199.504C192.677 198.507 193.521 197.722 194.606 197.15C195.691 196.578 196.975 196.292 198.456 196.292C199.629 196.292 200.663 196.483 201.558 196.864C202.467 197.245 203.171 197.795 203.67 198.514C204.183 199.218 204.44 200.039 204.44 200.978C204.44 201.814 204.257 202.606 203.89 203.354C203.538 204.087 202.849 204.923 201.822 205.862L198.918 208.546H204.858ZM212.902 212.308C211.582 212.308 210.409 211.993 209.382 211.362C208.356 210.731 207.549 209.815 206.962 208.612C206.39 207.395 206.104 205.957 206.104 204.3C206.104 202.643 206.39 201.213 206.962 200.01C207.549 198.793 208.356 197.869 209.382 197.238C210.409 196.607 211.582 196.292 212.902 196.292C214.208 196.292 215.374 196.607 216.4 197.238C217.427 197.869 218.226 198.793 218.798 200.01C219.385 201.213 219.678 202.643 219.678 204.3C219.678 205.957 219.385 207.395 218.798 208.612C218.226 209.815 217.427 210.731 216.4 211.362C215.374 211.993 214.208 212.308 212.902 212.308ZM212.902 208.744C213.636 208.744 214.215 208.392 214.64 207.688C215.08 206.969 215.3 205.84 215.3 204.3C215.3 202.76 215.08 201.638 214.64 200.934C214.215 200.215 213.636 199.856 212.902 199.856C212.154 199.856 211.56 200.215 211.12 200.934C210.695 201.638 210.482 202.76 210.482 204.3C210.482 205.84 210.695 206.969 211.12 207.688C211.56 208.392 212.154 208.744 212.902 208.744ZM223.218 212.198C222.514 212.198 221.92 211.963 221.436 211.494C220.952 211.025 220.71 210.431 220.71 209.712C220.71 208.979 220.945 208.385 221.414 207.93C221.898 207.475 222.5 207.248 223.218 207.248C223.952 207.248 224.553 207.475 225.022 207.93C225.492 208.385 225.726 208.979 225.726 209.712C225.726 210.431 225.484 211.025 225 211.494C224.531 211.963 223.937 212.198 223.218 212.198ZM233.308 196.6V212H228.952V199.966H226.092V196.6H233.308ZM242.224 196.6V212H237.868V199.966H235.008V196.6H242.224Z" fill="#001C5C"/>
<path d="M21.1927 51.096C20.5047 51.096 19.8847 50.956 19.3327 50.676C18.7887 50.388 18.3607 49.992 18.0487 49.488C17.7447 48.984 17.5927 48.412 17.5927 47.772C17.5927 47.132 17.7447 46.56 18.0487 46.056C18.3607 45.552 18.7887 45.16 19.3327 44.88C19.8847 44.592 20.5047 44.448 21.1927 44.448C21.8727 44.448 22.4647 44.592 22.9687 44.88C23.4807 45.16 23.8527 45.564 24.0847 46.092L22.6327 46.872C22.2967 46.28 21.8127 45.984 21.1807 45.984C20.6927 45.984 20.2887 46.144 19.9687 46.464C19.6487 46.784 19.4887 47.22 19.4887 47.772C19.4887 48.324 19.6487 48.76 19.9687 49.08C20.2887 49.4 20.6927 49.56 21.1807 49.56C21.8207 49.56 22.3047 49.264 22.6327 48.672L24.0847 49.464C23.8527 49.976 23.4807 50.376 22.9687 50.664C22.4647 50.952 21.8727 51.096 21.1927 51.096ZM28.0663 48.552H27.0943V51H25.2223V44.544H27.0943V47.052H28.1023L29.8543 44.544H31.8463L29.5903 47.64L32.0023 51H29.7943L28.0663 48.552ZM32.9215 44.544H34.7815V48.384L37.9255 44.544H39.6415V51H37.7815V47.16L34.6495 51H32.9215V44.544ZM48.677 49.464V52.392H46.937V51H42.401V52.392H40.661V49.464H40.925C41.325 49.456 41.601 49.22 41.753 48.756C41.905 48.292 42.001 47.632 42.041 46.776L42.125 44.544H47.753V49.464H48.677ZM43.733 46.908C43.709 47.564 43.657 48.1 43.577 48.516C43.505 48.932 43.365 49.248 43.157 49.464H45.881V46.08H43.769L43.733 46.908ZM52.6991 48.552H51.7271V51H49.8551V44.544H51.7271V47.052H52.7351L54.4871 44.544H56.4791L54.2231 47.64L56.6351 51H54.4271L52.6991 48.552ZM59.9451 44.448C60.9451 44.448 61.7131 44.688 62.2491 45.168C62.7851 45.64 63.0531 46.356 63.0531 47.316V51H61.3011V50.196C60.9491 50.796 60.2931 51.096 59.3331 51.096C58.8371 51.096 58.4051 51.012 58.0371 50.844C57.6771 50.676 57.4011 50.444 57.2091 50.148C57.0171 49.852 56.9211 49.516 56.9211 49.14C56.9211 48.54 57.1451 48.068 57.5931 47.724C58.0491 47.38 58.7491 47.208 59.6931 47.208H61.1811C61.1811 46.8 61.0571 46.488 60.8091 46.272C60.5611 46.048 60.1891 45.936 59.6931 45.936C59.3491 45.936 59.0091 45.992 58.6731 46.104C58.3451 46.208 58.0651 46.352 57.8331 46.536L57.1611 45.228C57.5131 44.98 57.9331 44.788 58.4211 44.652C58.9171 44.516 59.4251 44.448 59.9451 44.448ZM59.8011 49.836C60.1211 49.836 60.4051 49.764 60.6531 49.62C60.9011 49.468 61.0771 49.248 61.1811 48.96V48.3H59.8971C59.1291 48.3 58.7451 48.552 58.7451 49.056C58.7451 49.296 58.8371 49.488 59.0211 49.632C59.2131 49.768 59.4731 49.836 59.8011 49.836Z" fill="#001C5C"/>
<path d="M29.6283 21.6V24.328L24.1943 37H19.4423L24.6343 25.054H20.5863V27.43H16.8683V21.6H29.6283ZM37.379 37.308C36.059 37.308 34.8857 36.9927 33.859 36.362C32.8323 35.7313 32.0257 34.8147 31.439 33.612C30.867 32.3947 30.581 30.9573 30.581 29.3C30.581 27.6427 30.867 26.2127 31.439 25.01C32.0257 23.7927 32.8323 22.8687 33.859 22.238C34.8857 21.6073 36.059 21.292 37.379 21.292C38.6843 21.292 39.8503 21.6073 40.877 22.238C41.9037 22.8687 42.703 23.7927 43.275 25.01C43.8617 26.2127 44.155 27.6427 44.155 29.3C44.155 30.9573 43.8617 32.3947 43.275 33.612C42.703 34.8147 41.9037 35.7313 40.877 36.362C39.8503 36.9927 38.6843 37.308 37.379 37.308ZM37.379 33.744C38.1123 33.744 38.6917 33.392 39.117 32.688C39.557 31.9693 39.777 30.84 39.777 29.3C39.777 27.76 39.557 26.638 39.117 25.934C38.6917 25.2153 38.1123 24.856 37.379 24.856C36.631 24.856 36.037 25.2153 35.597 25.934C35.1717 26.638 34.959 27.76 34.959 29.3C34.959 30.84 35.1717 31.9693 35.597 32.688C36.037 33.392 36.631 33.744 37.379 33.744ZM49.3156 29.938C48.1569 29.938 47.2109 29.5567 46.4776 28.794C45.7442 28.0313 45.3776 26.99 45.3776 25.67C45.3776 24.8047 45.5462 24.0493 45.8836 23.404C46.2209 22.7587 46.6829 22.2673 47.2696 21.93C47.8709 21.578 48.5529 21.402 49.3156 21.402C50.4889 21.402 51.4422 21.7907 52.1756 22.568C52.9089 23.3307 53.2756 24.3647 53.2756 25.67C53.2756 26.99 52.9089 28.0313 52.1756 28.794C51.4422 29.5567 50.4889 29.938 49.3156 29.938ZM58.4236 21.6H61.5916L51.0756 37H47.9076L58.4236 21.6ZM49.3156 27.848C49.7116 27.848 50.0269 27.672 50.2616 27.32C50.4962 26.968 50.6136 26.418 50.6136 25.67C50.6136 24.922 50.4962 24.372 50.2616 24.02C50.0269 23.668 49.7116 23.492 49.3156 23.492C48.9342 23.492 48.6189 23.6753 48.3696 24.042C48.1349 24.394 48.0176 24.9367 48.0176 25.67C48.0176 26.4033 48.1349 26.9533 48.3696 27.32C48.6189 27.672 48.9342 27.848 49.3156 27.848ZM60.1836 37.198C59.0102 37.198 58.0569 36.8167 57.3236 36.054C56.6049 35.2913 56.2456 34.25 56.2456 32.93C56.2456 31.6247 56.6122 30.5907 57.3456 29.828C58.0789 29.0507 59.0249 28.662 60.1836 28.662C61.3569 28.662 62.3102 29.0507 63.0436 29.828C63.7769 30.5907 64.1436 31.6247 64.1436 32.93C64.1436 34.25 63.7769 35.2913 63.0436 36.054C62.3102 36.8167 61.3569 37.198 60.1836 37.198ZM60.1836 35.108C60.5796 35.108 60.8949 34.932 61.1296 34.58C61.3642 34.228 61.4816 33.678 61.4816 32.93C61.4816 32.182 61.3642 31.632 61.1296 31.28C60.8949 30.928 60.5796 30.752 60.1836 30.752C59.7876 30.752 59.4722 30.928 59.2376 31.28C59.0029 31.632 58.8856 32.182 58.8856 32.93C58.8856 33.678 59.0029 34.228 59.2376 34.58C59.4722 34.932 59.7876 35.108 60.1836 35.108Z" fill="#001C5C"/>
<rect x="15" y="61" width="225" height="112" fill="white"/>
<path d="M60.4735 93.2H74.5135L73.7695 96.872H64.4095L63.8575 99.584H68.2255C69.9535 99.584 71.2815 99.976 72.2095 100.76C73.1535 101.528 73.6255 102.64 73.6255 104.096C73.6255 105.296 73.2975 106.344 72.6415 107.24C71.9855 108.12 71.0415 108.8 69.8095 109.28C68.5935 109.76 67.1535 110 65.4895 110H57.1135L60.4735 93.2ZM65.8735 106.592C66.7535 106.592 67.4495 106.408 67.9615 106.04C68.4895 105.656 68.7535 105.136 68.7535 104.48C68.7535 103.968 68.5775 103.592 68.2255 103.352C67.8735 103.096 67.3295 102.968 66.5935 102.968H63.1855L62.4655 106.592H65.8735ZM84.6683 110.336C82.9723 110.336 81.4923 110.024 80.2283 109.4C78.9803 108.776 78.0123 107.904 77.3243 106.784C76.6523 105.664 76.3163 104.384 76.3163 102.944C76.3163 101.024 76.7563 99.296 77.6363 97.76C78.5323 96.224 79.7723 95.024 81.3563 94.16C82.9563 93.296 84.7723 92.864 86.8043 92.864C88.5003 92.864 89.9723 93.176 91.2203 93.8C92.4843 94.424 93.4523 95.296 94.1243 96.416C94.8123 97.536 95.1563 98.816 95.1563 100.256C95.1563 102.176 94.7083 103.904 93.8123 105.44C92.9323 106.976 91.6923 108.176 90.0923 109.04C88.5083 109.904 86.7003 110.336 84.6683 110.336ZM85.0763 106.4C86.1323 106.4 87.0603 106.136 87.8603 105.608C88.6603 105.08 89.2763 104.376 89.7083 103.496C90.1403 102.6 90.3563 101.616 90.3563 100.544C90.3563 99.408 90.0043 98.504 89.3003 97.832C88.6123 97.144 87.6443 96.8 86.3963 96.8C85.3403 96.8 84.4123 97.064 83.6123 97.592C82.8123 98.12 82.1963 98.832 81.7643 99.728C81.3323 100.608 81.1163 101.584 81.1163 102.656C81.1163 103.792 81.4603 104.704 82.1483 105.392C82.8523 106.064 83.8283 106.4 85.0763 106.4ZM115.249 93.2L111.889 110H107.209L109.801 96.968H105.001L104.161 100.64C103.585 103.12 102.985 105.048 102.361 106.424C101.737 107.8 100.993 108.792 100.129 109.4C99.281 109.992 98.201 110.288 96.889 110.288C96.153 110.288 95.449 110.192 94.777 110L95.809 106.112C96.001 106.16 96.209 106.184 96.433 106.184C96.993 106.184 97.481 105.984 97.897 105.584C98.313 105.184 98.697 104.536 99.049 103.64C99.401 102.728 99.761 101.48 100.129 99.896L101.713 93.2H115.249ZM127.003 98.552C128.875 98.552 130.275 98.936 131.203 99.704C132.131 100.456 132.595 101.608 132.595 103.16C132.595 104.52 132.251 105.72 131.563 106.76C130.875 107.784 129.891 108.584 128.611 109.16C127.347 109.72 125.883 110 124.219 110H116.227L119.587 93.2H124.267L123.187 98.552H127.003ZM124.531 106.592C125.475 106.592 126.243 106.32 126.835 105.776C127.427 105.232 127.723 104.536 127.723 103.688C127.723 103.08 127.547 102.64 127.195 102.368C126.859 102.08 126.323 101.936 125.587 101.936H122.515L121.579 106.592H124.531ZM160.567 93.2L157.207 110H134.431L137.791 93.2H142.471L139.903 106.232H144.295L146.839 93.2H151.519L148.975 106.232H153.343L155.887 93.2H160.567ZM173.95 106.736H166.798L164.854 110H159.838L170.614 93.2H175.294L179.35 110H174.622L173.95 106.736ZM173.23 103.232L172.102 97.784L168.886 103.232H173.23ZM198.625 93.224L195.265 110H190.585L191.449 105.776H188.977L185.377 110H180.193L184.681 104.984C183.849 104.552 183.217 103.952 182.785 103.184C182.353 102.416 182.137 101.504 182.137 100.448C182.137 99.008 182.497 97.744 183.217 96.656C183.953 95.568 184.985 94.728 186.313 94.136C187.641 93.528 189.169 93.224 190.897 93.224H198.625ZM190.393 96.968C189.321 96.968 188.489 97.24 187.897 97.784C187.321 98.312 187.033 99.064 187.033 100.04C187.033 101.416 187.801 102.104 189.337 102.104H192.169L193.201 96.968H190.393ZM37.2213 124.2C39.3973 124.2 41.0773 124.672 42.2613 125.616C43.4453 126.56 44.0373 127.888 44.0373 129.6C44.0373 131.008 43.6933 132.24 43.0053 133.296C42.3333 134.352 41.3653 135.168 40.1013 135.744C38.8533 136.32 37.3973 136.608 35.7333 136.608H32.3733L31.5093 141H26.7573L30.1173 124.2H37.2213ZM35.9493 132.864C37.0053 132.864 37.8133 132.616 38.3733 132.12C38.9493 131.624 39.2373 130.92 39.2373 130.008C39.2373 129.32 39.0053 128.808 38.5413 128.472C38.0933 128.12 37.4453 127.944 36.5973 127.944H34.1013L33.1173 132.864H35.9493ZM56.6465 137.736H49.4945L47.5505 141H42.5345L53.3105 124.2H57.9905L62.0465 141H57.3185L56.6465 137.736ZM55.9265 134.232L54.7985 128.784L51.5825 134.232H55.9265ZM73.5293 141.336C71.8333 141.336 70.3453 141.032 69.0653 140.424C67.7853 139.8 66.8013 138.928 66.1133 137.808C65.4253 136.688 65.0813 135.4 65.0813 133.944C65.0813 132.024 65.5213 130.296 66.4013 128.76C67.2973 127.224 68.5453 126.024 70.1453 125.16C71.7453 124.296 73.5693 123.864 75.6173 123.864C77.1693 123.864 78.5453 124.144 79.7453 124.704C80.9453 125.248 81.8413 126.024 82.4333 127.032L79.0013 129.768C78.1853 128.456 76.9533 127.8 75.3053 127.8C74.2333 127.8 73.2893 128.056 72.4733 128.568C71.6573 129.064 71.0173 129.76 70.5533 130.656C70.1053 131.536 69.8813 132.528 69.8813 133.632C69.8813 134.768 70.2493 135.68 70.9853 136.368C71.7213 137.056 72.7213 137.4 73.9853 137.4C75.5853 137.4 76.9533 136.752 78.0893 135.456L80.8973 138.216C79.9853 139.32 78.9213 140.12 77.7053 140.616C76.4893 141.096 75.0973 141.336 73.5293 141.336ZM102.212 124.2L98.8516 141H94.1716L96.7156 127.968H90.3316L87.7876 141H83.1076L86.4676 124.2H102.212ZM113.531 124.2C115.707 124.2 117.387 124.672 118.571 125.616C119.755 126.56 120.347 127.888 120.347 129.6C120.347 131.008 120.003 132.24 119.315 133.296C118.643 134.352 117.675 135.168 116.411 135.744C115.163 136.32 113.707 136.608 112.043 136.608H108.683L107.819 141H103.067L106.427 124.2H113.531ZM112.259 132.864C113.315 132.864 114.123 132.616 114.683 132.12C115.259 131.624 115.547 130.92 115.547 130.008C115.547 129.32 115.315 128.808 114.851 128.472C114.403 128.12 113.755 127.944 112.907 127.944H110.411L109.427 132.864H112.259ZM130.554 141.336C128.858 141.336 127.378 141.024 126.114 140.4C124.866 139.776 123.898 138.904 123.21 137.784C122.538 136.664 122.202 135.384 122.202 133.944C122.202 132.024 122.642 130.296 123.522 128.76C124.418 127.224 125.658 126.024 127.242 125.16C128.842 124.296 130.658 123.864 132.69 123.864C134.386 123.864 135.858 124.176 137.106 124.8C138.37 125.424 139.338 126.296 140.01 127.416C140.698 128.536 141.042 129.816 141.042 131.256C141.042 133.176 140.594 134.904 139.698 136.44C138.818 137.976 137.578 139.176 135.978 140.04C134.394 140.904 132.586 141.336 130.554 141.336ZM130.962 137.4C132.018 137.4 132.946 137.136 133.746 136.608C134.546 136.08 135.162 135.376 135.594 134.496C136.026 133.6 136.242 132.616 136.242 131.544C136.242 130.408 135.89 129.504 135.186 128.832C134.498 128.144 133.53 127.8 132.282 127.8C131.226 127.8 130.298 128.064 129.498 128.592C128.698 129.12 128.082 129.832 127.65 130.728C127.218 131.608 127.002 132.584 127.002 133.656C127.002 134.792 127.346 135.704 128.034 136.392C128.738 137.064 129.714 137.4 130.962 137.4ZM158.615 137.232H160.919L159.479 144.384H155.135L155.807 141H145.055L144.383 144.384H140.015L141.455 137.232H141.887C142.895 137.216 143.767 136.496 144.503 135.072C145.239 133.648 145.903 131.696 146.495 129.216L147.695 124.2H161.231L158.615 137.232ZM150.503 129.984C150.055 131.824 149.623 133.328 149.207 134.496C148.807 135.664 148.327 136.576 147.767 137.232H153.935L155.807 127.968H150.983L150.503 129.984ZM175.763 137.736H168.611L166.667 141H161.651L172.427 124.2H177.107L181.163 141H176.435L175.763 137.736ZM175.043 134.232L173.915 128.784L170.699 134.232H175.043ZM204.495 132.312L207.495 141H202.119L200.103 134.568H198.087L196.791 141H192.159L193.455 134.568H191.439L186.903 141H181.335L187.935 132.048L185.079 124.2H189.951L192.015 130.728H194.223L195.519 124.2H200.151L198.855 130.728H200.847L205.575 124.2H210.663L204.495 132.312ZM221.781 137.736H214.629L212.685 141H207.669L218.445 124.2H223.125L227.181 141H222.453L221.781 137.736ZM221.061 134.232L219.933 128.784L216.717 134.232H221.061Z" fill="#001C5C"/>
</svg>
